/* XPM */
static char *b22ebdcb8d004a33cac7f1a2382f9464Hodv0LQiLSPNmdAa[] = {
/* columns rows colors chars-per-pixel */
"64 64 18 1 ",
"  c None",
". c #815A4C",
"X c #B57158",
"o c #B4755E",
"O c #847161",
"+ c #A97562",
"@ c #DC7344",
"# c #DD7D5A",
"$ c #BF9975",
"% c #B0977D",
"& c #E6B054",
"* c #EDB75E",
"= c #D3B07A",
"- c #EDA57B",
"; c #FFDA76",
": c #F3B996",
"> c #FFF092",
", c #FFE8DA",
/* pixels */
"                                                                ",
"                                                                ",
"                                                                "
"                                                                ",
"                                                                ",
"                                                                ",
"                                                                ",
"                                                                ",
"                                                                ",
"                                                                ",
"                                                                ",
"                                                                ",
"                                                                ",
"                                                                ",
"                                                                ",
"                                                                ",
"                                                                ",
"                                                                ",
"                                        XXXX......              ",
"                                        XXXX......              ",
"                                    XXXX,,,,@@##....            ",
"                                    XXXX,,,,@@##....            ",
"                                XXXX,,,,------@@##++            ",
"                                XXXX,,,,------@@##++            ",
"                          ......,,----@@----@@####++            ",
"                          ......,,----@@----@@####++            ",
"                      ......####@@@@@@##@@@@######++..          ",
"                      ......####@@@@@@##@@@@######++..          ",
"                ......::################oooooooooooo..          ",
"                ......::################oooooooooooo..          ",
"            ......::##########oooooooooo>>>>>>>>>>;;..          ",
"            ......::##########oooooooooo>>>>>>>>>>;;..          ",
"          ....######oooooooooo>>>>>>>>;;;;;;;;;;;;;;;;..        ",
"          ....######oooooooooo>>>>>>>>;;;;;;;;;;;;;;;;..        ",
"        ..oooooooooo>>>>>>>>;;;;;;;;;;;;==;;;;;;;;;;;;..        ",
"        ..oooooooooo>>>>>>>>;;;;;;;;;;;;==;;;;;;;;;;;;..        ",
"      ....;;;;;;;;;;;;;;;;;;;;;;;;;;;;==%%==;;;;;;;;;;..        ",
"      ....;;;;;;;;;;;;;;;;;;;;;;;;;;;;==%%==;;;;;;;;;;..        ",
"      ......>>>>>>;;;;;;;;;;;;;;;;;;;;;;==;;;;;;;;;;;;..        ",
"      ......>>>>>>;;;;;;;;;;;;;;;;;;;;;;==;;;;;;;;;;;;..        ",
"            ......>>;;;;;;;;====;;;;;;;;;;;;;;;;;;;;;;..        ",
"            ......>>;;;;;;;;====;;;;;;;;;;;;;;;;;;;;;;..        ",
"                  ..;;;;;;==$$$$==;;;;;;;;;;;;;;**;;**..        ",
"                  ..;;;;;;==$$$$==;;;;;;;;;;;;;;**;;**..        ",
"              ......;;;;;;==$$$$==;;;;**;;**;;**;;**;;..        ",
"              ......;;;;;;==$$$$==;;;;**;;**;;**;;**;;..        ",
"              OO;;;;;;;;;;;;====;;;;**;;**;;**$$**$$&&..        ",
"              OO;;;;;;;;;;;;====;;;;**;;**;;**$$**$$&&..        ",
"              OOOO;;;;;;;;;;;;;;;;**;;&&==&&==**$$**$$..        ",
"              OOOO;;;;;;;;;;;;;;;;**;;&&==&&==**$$**$$..        ",
"                OO;;;;;;;;;;;;;;**;;&&==&&==&&........          ",
"                OO;;;;;;;;;;;;;;**;;&&==&&==&&........          ",
"                OO............................                  ",
"                OO............................                  ",
"                                                                ",
"                                                                ",
"                                                                ",
"                                                                ",
"                                                                ",
"                                                                ",
"                                                                ",
"                                                                ",
"                                                                ",
"                                                                "
};