/* XPM */
static char *_968a4ceafd04724fa7a67bb6f34b5a2NRUZNUnOZvWW8eVx[] = {
/* columns rows colors chars-per-pixel */
"64 64 201 2 ",
"   c None",
".  c #2D1E3E",
"X  c #3A1E3A",
"o  c #1C2536",
"O  c #1D263D",
"+  c #1E293F",
"@  c #24223E",
"#  c #29213F",
"$  c #21283A",
"%  c #33233E",
"&  c #3D213C",
"*  c #441D3A",
"=  c #43213B",
"-  c #4B253E",
";  c #76233E",
":  c #241F44",
">  c #2B1E41",
",  c #291E4C",
"<  c #321F43",
"1  c #361D47",
"2  c #2B1E52",
"3  c #1E2C46",
"4  c #1D274F",
"5  c #1E294B",
"6  c #1D2643",
"7  c #1E2552",
"8  c #1D2A53",
"9  c #1A2D58",
"0  c #193258",
"q  c #252143",
"w  c #292142",
"e  c #222B45",
"r  c #24244B",
"t  c #29234C",
"y  c #232B4B",
"u  c #2B2D48",
"i  c #332144",
"p  c #33224B",
"a  c #3C2442",
"s  c #24314A",
"d  c #2A324C",
"f  c #283647",
"g  c #252451",
"h  c #2A2553",
"j  c #242A54",
"k  c #2A2A54",
"l  c #23265A",
"z  c #2B265C",
"x  c #242C5C",
"c  c #2A2B5C",
"v  c #312356",
"b  c #31255A",
"n  c #27315C",
"m  c #2C3058",
"M  c #333C59",
"N  c #383D52",
"B  c #163163",
"V  c #252C63",
"C  c #2B2D64",
"Z  c #252E6A",
"A  c #2D2E6B",
"S  c #2F2766",
"D  c #342B63",
"F  c #332C6A",
"G  c #382C65",
"H  c #253264",
"J  c #263369",
"K  c #2C326B",
"L  c #273A6B",
"P  c #2B366A",
"I  c #36346B",
"U  c #39346E",
"Y  c #3D2E74",
"T  c #352F70",
"R  c #253172",
"E  c #2D3371",
"W  c #2B3B74",
"Q  c #2E3779",
"!  c #2D3C7B",
"~  c #253D79",
"^  c #333475",
"/  c #333779",
"(  c #3C347C",
")  c #323D7C",
"_  c #393271",
"`  c #411C42",
"'  c #4A2447",
"]  c #452449",
"[  c #5D2744",
"{  c #5B2A45",
"}  c #5B244A",
"|  c #5E2A4A",
" . c #572B43",
".. c #573354",
"X. c #612946",
"o. c #6D2A43",
"O. c #672648",
"+. c #752345",
"@. c #722846",
"#. c #74284A",
"$. c #752649",
"%. c #613B57",
"&. c #693854",
"*. c #743F5A",
"=. c #45387C",
"-. c #3A4153",
";. c #1F4A7F",
":. c #28406F",
">. c #26437C",
",. c #2C437D",
"<. c #29497F",
"1. c #274275",
"2. c #32427B",
"3. c #30497F",
"4. c #79455B",
"5. c #434761",
"6. c #51447D",
"7. c #7F4A64",
"8. c #953E55",
"9. c #923F58",
"0. c #86455A",
"q. c #8A445A",
"w. c #84465B",
"e. c #914156",
"r. c #964058",
"t. c #9E4B5B",
"y. c #944E5E",
"u. c #A34E5C",
"i. c #9E4E62",
"p. c #934E67",
"a. c #874962",
"s. c #A85665",
"d. c #2B3C81",
"f. c #343E81",
"g. c #3D3784",
"h. c #453A8C",
"j. c #443886",
"k. c #1F4687",
"l. c #1E579A",
"z. c #2C4383",
"x. c #284985",
"c. c #354282",
"v. c #34458B",
"b. c #39458B",
"n. c #344B8B",
"m. c #3A4B8C",
"M. c #394A86",
"N. c #34558D",
"B. c #35578C",
"V. c #354D93",
"C. c #3A4E93",
"Z. c #374F98",
"A. c #3D4E9A",
"S. c #2D5495",
"D. c #2B5997",
"F. c #285898",
"G. c #345394",
"H. c #395596",
"J. c #375890",
"K. c #35539A",
"L. c #3B529A",
"P. c #335A9C",
"I. c #395A9B",
"U. c #36629B",
"Y. c #2B58A2",
"T. c #345EA4",
"R. c #2963A5",
"E. c #3868A6",
"W. c #3B7DBB",
"Q. c #504481",
"!. c #554D9B",
"~. c #5F5391",
"^. c #4A4691",
"/. c #60548E",
"(. c #6E5C98",
"). c #584CA0",
"_. c #5C53A2",
"`. c #6B5DA1",
"'. c #685FB0",
"]. c #446AA5",
"[. c #4070A4",
"{. c #416FB0",
"}. c #4372B4",
"|. c #417BBB",
" X c #4C7CBB",
".X c #4979B5",
"XX c #5276BA",
"oX c #6862A9",
"OX c #6967B3",
"+X c #716DB9",
"@X c #467BC3",
"#X c #807BB8",
"$X c #3F8ACE",
"%X c #4185C4",
"&X c #4489C6",
"*X c #4888C8",
"=X c #538CCC",
"-X c #5383C7",
";X c #518DD1",
":X c #4990D1",
">X c #8D89C4",
/* pixels */
"                                                                                                                                ",
"                                                                                                                                ",
"                                                                                                                                ",
"                                                                                                                                ",
"                                                                                                                                ",
"                                                                                                                                ",
"                                                                                                                                ",
"                                                                                                                                ",
"                                                                                                                                ",
"                                                      e r r e q O q y t y 6                                                     ",
"                                              + d e n J.J.J.N.H k 2.J.J.B.:.y N 3                                               ",
"                                          d j m j c 1.|.W.W.}.H z H.W.W.W.D.A r C j y f                                         ",
"                                        V ~ .XZ.x k K C.L.K.G.C k f.L.K.L.c.x x ,. XN.9 s                                       ",
"                                      0 |.*XR.W.N.7 A z.L.L.m.A S c.C.A.V.E l H *XR.W.-X1.y                                     ",
"                                  r H .XR.F.K.K.~ D g Z R R E c k Z R R E c b A G.F.D.Y.-X1.8 f                                 ",
"                                s 9 J.R.K.K.K.C.^ z r j H c j q : j V V C h v F n.H.K.P.l.].V n d                               ",
"                              O l j S d.V.L.V.Q S g q e q q 6 @ q q q r q r r r K c.C.I.x.9 l x j                               ",
"                              0 [.E.V C W ! ! x r r q q 6 q q @ q q q q t q q q z E / ~ K j <.|.1.f                             ",
"                            d Z P.E.U.9 c Z Z r q e r @ @ O q q q q q t q w q r r z Z Z l >.$XF.>.7                             ",
"                            x }.U.G.E.B.t r : i i w @ q q q q q : q q q q q q q q q q q B -XF.K. X2.3                           ",
"                          y V k.S.S.Z.^ h : < } } w r q q q w : w q q q q q q q q : q q H n.G.G.n.K m                           ",
"                          5 Z J ! ! ! x q i | +.o.a q q q w q q q q q q q w q q q q w r j K ) d.^ A c +                         ",
"                          M h h C I c r . 4.9.+.@.& ' # e @ q q q q : w : w q q w : w q q z A C z j d                           ",
"                          d C c z l , : * y.8.+.@.& | # q q q q q q q q q q q q q q q q @ q g 7 l D m q                         ",
"                          r d.k.,.c h w w.s.9.; @.& | > w q q q q q w q q q q q q q : q @ q h L ;.x.C e                         ",
"                          7 E.$X*XG.z w q.u.e.@.o.& | > w w q q w : : q q q w : q q w q # r Q W.%X&Xx +                         ",
"                          g f.L.K.E.k w 0.t.8.; $.= X.> w : : q w q q q q q w q q q q : @ r n.T.L.K.x @                         ",
"                          t f.K.K.n.h w 7.p.0.o.+.* [ > w : q q q q q q q q q q w q q 6 w y / A.L.G.n @                         ",
"                          y ) V.n.n.9 q i p p % ' & { w w w w q q q : q q w q q q w q q w g ^ V.V.n.A @                         ",
"                          5 K Z Z K y h ~.`.(.6.w . | w q q q q q w w q q : q q q q q q q g c C Z C A e                         ",
"                          M z z z z r U #X>X>XoXY p | # q q q q q q q q w : q q q q q q q r k z z k d                           ",
"                          M V V c c @ U oXOXOX~.=.p X.# O q q q q q q q q q q w q q w w w r j x x V k d                         ",
"                          4 I.:X;XXX8 I ^.OX+X_.=.t { # q q : q q q q w q q q q q : w @ # r x.:X:X=Xx o                         ",
"                          j k.l.Y.Z.z I g.h.h.j.D w  .# @ O w q w : : q q q : q q q q 6 : g ~ F.F.S.n o                         ",
"                          y z.F.L.n.V , T ( =.S p < } . q @ q q q q q q q w w q q q q 6 @ g W S.S.G.C o                         ",
"                          7 c.H.K.n.9 q ......' | ` [ : @ q q w q q q w q q q q q w q q q g ! S.G.G.x o                         ",
"                          8 E Q Q ^ j # q.u.8.+.#.a [ . q q q q q q q q q w q q w q q q @ h K d.! ! C 6                         ",
"                          y C A C Z e w 0.u.8.+.#.& [ > w : q q q w : q q : q q q w q w q w z F F F c e                         ",
"                          N 2 h h 8 q w 0.u.r.+.$.& [ > w q : q w q q q : q q q w q r w @ q q r 7 r d                           ",
"                          t 2.I.K.n.y @ 0.u.r.+.$.X [ > w : q q q q q q w q q w q q w q @ q L D.D.S.Z o                         ",
"                          j L.@X@XE.j : 0.u.e.+.$.X [ > w w q w q w q q : q w q q : w w w t x.W.W.|.Z o                         ",
"                          t c.H.K.m.j # 0.t.8.; $.& [ > r q q q q : q q q q q q q q q w w g W G.G.G.C o                         ",
"                          g c.P.H.m.k # 4.y.0.o.+.a X.. : q w q : q q w w q q q q q q q w g / C.Z.C.C o                         ",
"                          g v.K.K.m.l r p v 1 i ] i | : w @ q q w q q q q q q q q q q q > r ! T.T.A.Z o                         ",
"                          g d.v.g.) j k /.(.(.Q.2 . } # @ q q w q q q q q q : w : q q q q y E n.g.b.C o                         ",
"                          r A K K V y U #X>X>XoX=., | . q q q q q q q w : q q q q q q q q q x A E A c o                         ",
"                          5.t g g 2 , T OXOXOX).j.b } # q @ q q q q q q w q q q q q q q q q r g j t k                           ",
"                          y W <.<.W , ( h.OXOX).( t | w w q q q q w : q q q w q q w q w : , Z ,.,.,.c f                         ",
"                          5 U.*X*X}.c F j.h.h.=.v # X.> q q q q : q q w q q q q w q w : : k M.%X$X*XV O                         ",
"                          8 z.K.G.m.b , G G G h ` < O.w q q w q w q q q q w q q q q q q w h / H.L.H.V O                         ",
"                          3 W 1.W P t t &.4.&. .X.&  .: 6 q q q q q q q q q q q q q q q w r C ) ! 2.V q                         ",
"                          N 5 j g 4 > w a.i.e.@.+.& % w q q q q q q q q w : w q q q q q q q r g g g k                           ",
"                          y P 1.,.L r w w.t.9.o.= # # q q q q q q : w q q q q q q q w q w q j W ,.W m $                         ",
"                        f j 2.]. X,.j w %.*.&.- # q r q O q q q q q q q q q q q : q q q q r n ].XXH.c u                         ",
"                        + 3 j n n j q q r w w > q r q q q q 6 q q q 6 q q q 6 q q q 6 : w q y x l j y q s                       ",
"                                                                                                                                ",
"                                                                                                                                ",
"                                                                                                                                ",
"                                                                                                                                ",
"                                                                                                                                ",
"                                                                                                                                ",
"                                                                                                                                ",
"                                                                                                                                ",
"                                                                                                                                "
};
