/* XPM */
static char *_dd2262f79c64c28f18b505f53a090d7mxEp3xEprXwFWJez[] = {
/* columns rows colors chars-per-pixel */
"62 64 236 2 ",
"   c None",
".  c #251E3D",
"X  c #2B1E3D",
"o  c #361E3D",
"O  c #1C243D",
"+  c #1B293D",
"@  c #24223D",
"#  c #2B213E",
"$  c #242A3C",
"%  c #3C213F",
"&  c #34223E",
"*  c #28333E",
"=  c #47233D",
"-  c #68223F",
";  c #72273F",
":  c #1C1F40",
">  c #251E44",
",  c #2B1E42",
"<  c #261E4B",
"1  c #2B1D4A",
"2  c #331E43",
"3  c #331D4B",
"4  c #3B1D42",
"5  c #2B1F50",
"6  c #1E2543",
"7  c #1D2A43",
"8  c #1D244B",
"9  c #162944",
"0  c #1D2B54",
"q  c #1F2C59",
"w  c #1E2552",
"e  c #1D315A",
"r  c #1F364B",
"t  c #242344",
"y  c #2A2243",
"u  c #232B44",
"i  c #2A2B45",
"p  c #24234B",
"a  c #2A234C",
"s  c #242A4C",
"d  c #332143",
"f  c #3C2243",
"g  c #33234B",
"h  c #3B244A",
"j  c #3E2848",
"k  c #283348",
"l  c #242553",
"z  c #2B2552",
"x  c #242B54",
"c  c #292B54",
"v  c #252559",
"b  c #29265B",
"n  c #242B5B",
"m  c #2A2B5C",
"M  c #322452",
"N  c #332959",
"B  c #283558",
"V  c #323759",
"C  c #353F4F",
"Z  c #193265",
"A  c #1E2F63",
"S  c #242D63",
"D  c #2A2D63",
"F  c #2C2D6B",
"G  c #252B66",
"H  c #3A2E6C",
"J  c #322D67",
"K  c #253264",
"L  c #2A3164",
"P  c #26326C",
"I  c #2A316B",
"U  c #2C3D68",
"Y  c #34346C",
"T  c #263472",
"R  c #2C3472",
"E  c #243C71",
"W  c #2C3C74",
"Q  c #2C3C7B",
"!  c #343474",
"~  c #3C3474",
"^  c #3D357A",
"/  c #323D7C",
"(  c #3C3D7E",
")  c #353A73",
"_  c #362D72",
"`  c #471E43",
"'  c #442243",
"]  c #4B2444",
"[  c #44244A",
"{  c #472848",
"}  c #532544",
"|  c #55254A",
" . c #5C2B4C",
".. c #5B2A47",
"X. c #4E354C",
"o. c #52354C",
"O. c #5F3147",
"+. c #553650",
"@. c #642543",
"#. c #6A2646",
"$. c #642946",
"%. c #6C2A45",
"&. c #62254A",
"*. c #632B4A",
"=. c #6C2B4A",
"-. c #6A264E",
";. c #732545",
":. c #7C2B45",
">. c #72274A",
",. c #7C2649",
"<. c #722B4B",
"1. c #792945",
"2. c #67314B",
"3. c #7B344C",
"4. c #733F4D",
"5. c #6A2A52",
"6. c #793652",
"7. c #6E3552",
"8. c #42337B",
"9. c #423A7D",
"0. c #433877",
"q. c #402F79",
"w. c #2B437C",
"e. c #274276",
"r. c #31457C",
"t. c #33537F",
"y. c #434B5D",
"u. c #794355",
"i. c #822C4A",
"p. c #832A47",
"a. c #81354E",
"s. c #88364D",
"d. c #833A55",
"f. c #8D3B54",
"g. c #853754",
"h. c #923D54",
"j. c #973D57",
"k. c #90374E",
"l. c #8D4155",
"z. c #864358",
"x. c #994357",
"c. c #94445B",
"v. c #9A445A",
"b. c #9D4B5C",
"n. c #924557",
"m. c #A24C5E",
"M. c #A1475F",
"N. c #9D4C62",
"B. c #984260",
"V. c #844663",
"C. c #A34C61",
"Z. c #A44A62",
"A. c #A15162",
"S. c #3B3B81",
"D. c #423A82",
"F. c #4A3A8E",
"G. c #473787",
"H. c #473A91",
"J. c #2C4484",
"K. c #2C4C85",
"L. c #2D4B89",
"P. c #234A87",
"I. c #334484",
"U. c #324A86",
"Y. c #324489",
"T. c #324D8B",
"R. c #394B8D",
"E. c #394488",
"W. c #3A538F",
"Q. c #36568C",
"!. c #3A4C93",
"~. c #354D97",
"^. c #2D5495",
"/. c #2C549C",
"(. c #2A5896",
"). c #345393",
"_. c #3A5294",
"`. c #32549A",
"'. c #39529B",
"]. c #375A98",
"[. c #29508D",
"{. c #3B639C",
"}. c #35689C",
"|. c #2C619E",
" X c #245AA0",
".X c #365BA2",
"XX c #3463A5",
"oX c #3A68A6",
"OX c #3B74AC",
"+X c #3E6EB5",
"@X c #3C75B4",
"#X c #3A79B3",
"$X c #3478B1",
"%X c #2E65A5",
"&X c #4D4395",
"*X c #534D9B",
"=X c #584D97",
"-X c #56519B",
";X c #4A4D8E",
":X c #675F9F",
">X c #40689D",
",X c #6F669F",
"<X c #5D4DA3",
"1X c #665DA8",
"2X c #4367A6",
"3X c #4671AD",
"4X c #4173B3",
"5X c #6361AD",
"6X c #6C67A7",
"7X c #7266A6",
"8X c #6569B5",
"9X c #6A6AB5",
"0X c #666EBA",
"qX c #6B6CBA",
"wX c #6664B2",
"eX c #716BB6",
"rX c #6A70BD",
"tX c #7A77B7",
"yX c #7272AC",
"uX c #4F81BD",
"iX c #3C84C5",
"pX c #4786C5",
"aX c #558CC8",
"sX c #4B91CC",
"dX c #4B92D4",
"fX c #5692D2",
"gX c #989DD2",
"hX c #A19BD2",
"jX c #A09BCF",
"kX c #97A0D0",
"lX c #ADA9CD",
"zX c #B1ABCA",
"xX c #AEA6D3",
"cX c #ADA7D3",
"vX c #B1ABD1",
"bX c #B1A7D4",
/* pixels */
"                                                                                                                            ",
"                                                                                                                            ",
"                                                                                                                            ",
"                                                                                                                            ",
"                                                                                                                            ",
"                                                                                                                            ",
"                                                                                                                            ",
"                                                    i t t s : 6 s t a s 6                                                   ",
"                                            C y.k 9 Z e Z A v 0 q P R P S 8 k k                                             ",
"                                          7 B x D K aXsXdXfXr.p W.aXsXdXaXE n c c u                                         ",
"                                      x K {.T.n D I ).^./.`.R z / )././.].P v K t.Q.e k                                     ",
"                                    B _.XXiX#Xe.b F Y.)._._.T 8 / _.]._.Y.P c _.$XiX|.Q.e.                                  ",
"                                u e oX+X+X(.XXL.S x P / r.S.P l I / w.Q F n B ).|.`.+X@X(.0 +                               ",
"                              u x oXOX/.'.[.`.Y.F < l Y J F v z b D D D J a K J.^.~.'.(.$Xt.N i                             ",
"                            a B b P T.).^.W.r.K a t 1 < t t , 1 z p p t . y v P U.W.'.'.w.L n b O                           ",
"                            n E.R x U U.T.r.D x 1 t f f f d y t > , 4 % d t 8 n L I.R.Y.P n w.E.s                           ",
"                          7 I.uX@XE A S P S l < , o *.%.%.} y @ o ..#.;.$.2 6 t z G T T Z P.$XuXm u                         ",
"                          e 4X^..X@XE x x s t > . } 3.h.p.;.f > = ;.p.k.:.] @ > > z z c K.#X X/.2X0                         ",
"                        u K OX~.`.XXW l t @ j d y %.x.m.x.3.f t ] 3.x.Z.h.#.# [ 4 , # p U.].^./.2XG s                       ",
"                      k c L / R.).Y.D p t ' $.] & <.m.m.m.a.' t { 6.Z.Z.N.#.X | -.' y l I Y.).).! H m                       ",
"                      O b D F T T T q t % #.; ] # %.m.m.b.a.f . ] d.b.m.m.*.@ | ;.#.o t b I T R S L B                       ",
"                        c < b D n l a 2 %.:.; ] X %.Z.m.b.a.% t { d.b.b.C.@.t } 1.:.&.y a b m F v l B                       ",
"                      9 x I D v p t 2 ` 1.x.3.] # %.C.m.m.a.= t ] d.m.b.A.@.y ] i.B.%.` , 1 a s G G n                       ",
"                      + q oX$X2XA a 2  .l.N.l.] X %.C.C.b.a.% t { d.b.b.m.@.X } c.Z.g.-.y z K >X#X].K                       ",
"                      t x oX$X@X'.c X *.b.C.s.= & %.b.A.b.3.% y ' g.m.m.b.$.@ ] n.C.c.$., m 2X#X#X].n                       ",
"                      u n T.).].!.c y  .b.b.d.' 2 *.m.C.m.6.& t ' 6.m.m.v.*.# ] f.C.l.O.3 N ].(.`.L.n                       ",
"                      t D T.).'.Y.l y f $.u.= 2 , o 2.V.7.] y t , ` 6.u.2.& t # } u.} 2 p b !.'.~.L.n                       ",
"                      u n J.[.~.S.x > c h h 3 5 M z g N M M a b z M M h g z c a g g g a 8 n E.[.T.J.n                       ",
"                      k n F P F G l m ;X=X=X*X*X=X=X*X*X*X*X*X*X*X=X*X:X=X,X,X7X7X=X=X&Xb c m D F F c                       ",
"                        V x c c p p ! 5XeXqXqXqXqXrXqX0X0X0X0XrX8X0X9XjX7XbXlXzXzXtXeX1X_ t c c b l V                       ",
"                      k B n B n x 6 ) 5X9XqXqXqXqX8X8X8X8X8X8X8X8X8X9XjX7XcXlXbXbXtXeX1X_ p N m m m c                       ",
"                      . n 3XpXsXoX0 ^ &X6X9XwXqXqX8XqXwXwX8X8X8X8X8XyXhXeXcXvXvXbXtX1X&X_ x 3XpXpX2XD                       ",
"                      : D ~. X XP.x H G.F.F.F.F.F.H.F.F.F.F.F.F.G.G.F.G.G.G.G.G.D.G.H.G.J x ~./.(.P.A                       ",
"                      6 G !.~.`.J.l < H 8.8.D.8.8.8.q.q.q.q.q.8.q.^ 8.~ ^ ~ ^ ^ ~ 0.0.J p n R.`./.S.G                       ",
"                      + v R./.'.Y.x @ X [ [ d > a 2 [ [ [ d p p > 2 [ ` h y 6 t f { f , > n !.`._.E.G                       ",
"                      7 m R E S.R c # ` ,.;.*.g y | ;.,.;. .d u g ..1.,.;.] u f #.;.#.] 1 n Q Q W ! D                       ",
"                      r B K P G D p 2 &.i.f.3.' d #.p.B.a.<.f y [ <.k.x.p.#.# } :.l.3...y p G F D D B                       ",
"                        B w 0 x p > 2 -.c.b.s.' y %.v.C.b.6.& @ ' 6.x.b.B.$.# ] s.b.j.- @ 6 p 5 p p V                       ",
"                      t n w.J.L.W p , &.N.C.f.= # %.C.b.b.a.d y ] g.m.b.C.- # ..l.m.x.@.@ 8 w.J.L.e.B                       ",
"                      u n OXiXpXoXl y &.C.C.f.' # %.C.m.b.a.f t ] g.m.m.m.- # | l.m.x.$.1 x 4XpXiX{.G                       ",
"                      y m [.^.^.r.b y &.C.C.f.' X #.m.b.b.3.4 y ] g.m.b.C.- y ..l.b.n.$.t x T.`.`.J.n                       ",
"                      u m U.W.).U.p t ' z.c.2.d . } g.N.z.*.2 y 2 *.c.N.6.] # % 2.b.6.{ t n R.'.`.J.c                       ",
"                      u x T._.`.U.x t t j [ X a p , h } f 2 1 < p M h { h < < > h [ h a t n T.'.`.K.n                       ",
"                      u n U._.'.Y.l z ! ( D.9.9.9.8.D.D.D.9.G.D.D.D.S.D.0.9.0.0.9.9.0.~ t q Y.).[.J.e                       ",
"                      9 x ! R R F z ~ 1XwX9XeX9X8XqXwXwX9XwX9X9XqXqX9XgXyXcXbXbXcXtX9X5XU x R R P I n                       ",
"                        l b b m c p ^ wX9X9X9XqXqXqXqXqXeXqX9X9XqXeX8XkX6XlXzXzXlXtX8XwXJ 8 l x n G n                       ",
"                        c l l w p 1 ^ -X0XqXqXqXrXrX0X0XqXqXqX0XqXqX9XkX6XxXzXzXlXtX9X<XH > b 0 q x B                       ",
"                      i S oX#X#XW.1 8.G.-X*X*X*X*X*X*X*X*X*X*X*X*X*X*X6X<X7X,X,X6X-X&XG.H x {.$X$X].D                       ",
"                      t x (.oXoX~.5 M ~ D.D.D.G.D.D.D.G.S.D.D.G.9.( D.8.F.G.G.D.^ G.G.8.z x _.}.%X).n                       ",
"                      u v U.;X~.E.z a y h 3 1 < p 1 3 1 1 < < l p 1 3 3 3 5 5 1 a 2 3 1 p c r.!.).E.S                       ",
"                      k B P F F m a y f *.*. .3 . ] $.$.*.} , t 2 | -.>.-.` t X | *.*.[ y p m P S D B                       ",
"                        V n v q a > 2  .,.:.>.[ 2 -.p.i.:.>.f y [ 5.p.p.p...X ] <.i.,.*.3 p x x l b V                       ",
"                      i D Q 4XoX) a X ' z.N.6.f , | c.C.B.5.2 y 3 *.N.b.z.] X 4 6.N.d.] 1 p e.OXOXQ c                       ",
"                      i N W {._.R p t # X.X.[ y t o o.o.o.' , y > h +.o.X.& y X { X.{ 3 t l U )._.R c i                     ",
"                    $ @ y y a l p X 6 t @ t t t t t @ @ $ @ t > p t t t @ t t a t t t t t 7 t 7 u p t @ k                   ",
"                                                                                                                            ",
"                                                                                                                            ",
"                                                                                                                            ",
"                                                                                                                            ",
"                                                                                                                            ",
"                                                                                                                            ",
"                                                                                                                            ",
"                                                                                                                            ",
"                                                                                                                            "
};
