/* XPM */
static char *_0f5ccfa45274e25a4a8908b2f66b26eHHPLwEKWnOwVKVmZ[] = {
/* columns rows colors chars-per-pixel */
"45 54 183 2 ",
"   c None",
".  c #0F0F0E",
"X  c #130E0E",
"o  c #0E110D",
"O  c #111306",
"+  c #12110E",
"@  c #1B140D",
"#  c #1C1A0D",
"$  c #181006",
"%  c #0E0E13",
"&  c #100F14",
"*  c #0E1114",
"=  c #0F1218",
"-  c #121215",
";  c #191211",
":  c #1C1B15",
">  c #131419",
",  c #19161A",
"<  c #16191B",
"1  c #1B1B1D",
"2  c #171816",
"3  c #231C12",
"4  c #2D2709",
"5  c #242017",
"6  c #2A251A",
"7  c #27221B",
"8  c #332C1B",
"9  c #33261A",
"0  c #38331F",
"q  c #151B20",
"w  c #1C1D22",
"e  c #211D24",
"r  c #1C2125",
"t  c #1E2329",
"y  c #222225",
"u  c #282A25",
"i  c #23252A",
"p  c #29272D",
"a  c #26292C",
"s  c #2A2B2D",
"d  c #2A302F",
"f  c #3A3321",
"g  c #3F3E2E",
"h  c #252C33",
"j  c #2D2E32",
"k  c #302F34",
"l  c #2C3137",
"z  c #2E343A",
"x  c #333235",
"c  c #35353A",
"v  c #39373C",
"b  c #35393C",
"n  c #3A3A3E",
"m  c #40390B",
"M  c #413A25",
"N  c #433D2A",
"B  c #413727",
"V  c #4E450C",
"C  c #5E551C",
"Z  c #52480A",
"A  c #67560E",
"S  c #736517",
"D  c #4D442D",
"F  c #55472F",
"G  c #544834",
"H  c #5A5137",
"J  c #5C5038",
"K  c #60593E",
"L  c #363B41",
"P  c #3D3D43",
"I  c #3C3F49",
"U  c #403F45",
"Y  c #413F48",
"T  c #3E4146",
"R  c #3D434A",
"E  c #364045",
"W  c #424245",
"Q  c #44444B",
"!  c #48474E",
"~  c #44494D",
"^  c #4A4A4E",
"/  c #484946",
"(  c #444550",
")  c #494751",
"_  c #454A53",
"`  c #4A4A53",
"'  c #4B4E59",
"]  c #464C58",
"[  c #4B535B",
"{  c #475359",
"}  c #545553",
"|  c #52555D",
" . c #5B5C5A",
".. c #6C6242",
"X. c #77684A",
"o. c #797255",
"O. c #4B5A61",
"+. c #535B63",
"@. c #595B64",
"#. c #5C5F69",
"$. c #565B65",
"%. c #566065",
"&. c #5D6167",
"*. c #556269",
"=. c #5B636C",
"-. c #5D686C",
";. c #5C6772",
":. c #5E6B73",
">. c #5C7179",
",. c #676766",
"<. c #61636D",
"1. c #696B6E",
"2. c #646C74",
"3. c #646D79",
"4. c #65727B",
"5. c #6A737B",
"6. c #657378",
"7. c #777777",
"8. c #87770E",
"9. c #857553",
"0. c #877853",
"q. c #B8A208",
"w. c #B19D2F",
"e. c #B6A726",
"r. c #C4A101",
"t. c #C6B51A",
"y. c #D6BC24",
"u. c #EAC801",
"i. c #F3DB08",
"p. c #8F845B",
"a. c #958B5F",
"s. c #998C5A",
"d. c #A2935E",
"f. c #8C8162",
"g. c #978860",
"h. c #9B9168",
"j. c #A38D62",
"k. c #A49564",
"l. c #A99B66",
"z. c #B59F66",
"x. c #BEA565",
"c. c #B7A66C",
"v. c #BCA56B",
"b. c #BEA86C",
"n. c #BFA966",
"m. c #B4A471",
"M. c #B6A977",
"N. c #C3A76B",
"B. c #C3AB6B",
"V. c #C8AE6F",
"C. c #C9B16E",
"Z. c #C4AE71",
"A. c #C7B274",
"S. c #CDB475",
"D. c #C8B67E",
"F. c #D2BB79",
"G. c #D7C27E",
"H. c #DAC47E",
"J. c #667682",
"K. c #6B7681",
"L. c #667A84",
"P. c #6A7983",
"I. c #687988",
"U. c #868886",
"Y. c #878986",
"T. c #92948D",
"R. c #8E9190",
"E. c #959593",
"W. c #9C9D9C",
"Q. c #A9AAA8",
"!. c #AFB0AD",
"~. c #BBBBBA",
"^. c #B5B7B4",
"/. c #C6B984",
"(. c #D3BE83",
"). c #CDC285",
"_. c #D5C383",
"`. c #DAC482",
"'. c #DAC481",
"]. c #D7C38A",
"[. c #C0C1BF",
"{. c #CACAC7",
"}. c #D4D7D4",
/* pixels */
"                                                                                          ",
"                                          > > > >                                         ",
"                                      * < i i w , - -                                     ",
"                                  = t R =.<.@.` Q k w - >                                 ",
"                                = h ;.L.6.+.' ` ) Y P p - >                               ",
"                              > R J.L.;.L i 1 1 3 k P U v > -                             ",
"                            * ~ P.J.[ w @ B J K N & ; c P x - -                           ",
"                          - t 4.I.*.i : X.k.M.c.l...3 1 n n i -                           ",
"                        > = O.L.J.z @ ..v.N.N.V.C.N.p.7 w n P 1 >                         ",
"                        & z L.L.6.w 6 z.N.S.(.'.H.H.(.o.& s T c & >                       ",
"                      > q ;.L.L.[ * J N.S.'.'.'.H.H.'.M.: 1 N I e >                       ",
"                      * z J.I.I.z 1 f.M.'.F.'.'.H.H.l.0 o - P I k >                       ",
"                      * { L.I.I.a ; # M 9.m.(.(.(.a.@ ; g + x T n 1 &                     ",
"                    - 2 -.L.I.J.r 6 f @ ; 3 G m.(.9 3 ../.: s T U i &                     ",
"                    - i 4.L.L.;.2 N l.9.f $ # g._.X.k.(.].B y n P c >                     ",
"                    - b P.L.O.*.< D c.D.(.(.(.`.H.'.'.'.].G i N P U =                     ",
"                  - + +.K.3.] ' 2 D c.V.F.G.`.H.H.H.'.H.'.J 7 T U N w =                   ",
"                  - * 5.I.K.] ] r M v.x.B.'.'.'.H.H.H.'.'.J 1 T U U i =                   ",
"                - * q J.J.>.] ` a 8 z.x.C.G.'.H.'.H.H.H.].B 3 Q Q U a -                   ",
"                & * i L.J.3.] ` c 3 j.N.V.A.G.H.H.H.'.H./.1 i P v U s &                   ",
"                - - h J.J.:.` ` P 2 9.x.n.F.H.H.H.'.'.'.a.> p c 2 c j -                   ",
"              > - l P [ h ( _ ` Q 1 9 v.n.B.F.H.H.'.'./.B - c n 2 2 u -                   ",
"              - < s ~ T q w ^ ` ^ x X F m.v.N.S.H.`.].X.; e / U x 2 - o                   ",
"              - - 1 $.W 3 2 ^ ` ^ Q e @ G 0.s.d.k.h...3 ; v ! U n y - -                   ",
"            < 1 r r 6.( s % n ^ ^ ` Q j - + : : : - ; i U ! ! ! U v > X     - # @ X -     ",
"            = s t t K.Q x - k ^ ^ ' ` ` P x i y i k P Y U ! Y ) U P e &     o C e.S 4 o % ",
"            % R h t K._ n 2 w ` ` ` ' ` ^ W W P W Q ) ` ) ) Q ` Y U j & - - O t.u.i.w.+   ",
"          - 2 %.i w K.O.P a & W ^ ' ` ' ` ` ` ` ` ` ) Q ) ` ` ) Q U L > - o 4 y.r.r.A &   ",
"          - r 6.h q L.*.T v > j ` ` [ <.` ` ` ` ` ` ) ` ` ` ! ! Q c y & - u + 8.q.q.m -   ",
"          = s 6.E = 4.:.Q U y , ! ` ` 2.` ` ` ` ` ) ` ` ` ` n x y - u ,.Q.R.3 4 Z V # -   ",
"          * ~ L.] = ;.5.' Y c & x ` ` 2.| ~ ` ` ) ! ) ) P p ; e / E.!.Y.W : O + + + -     ",
"          = %.L.$.% $.K.' ) P < w ) ) <.` ` ` ` ^ ! I p > % / W.{.E./ - - : -             ",
"          > 4.J.4.< R P.O.` Y p - P _ <.` ~ ` Q x , % s 7.[.~.,.u o 2 1 + s , -           ",
"        & w P.P.3.i h 3.' ` Q n - r ^ &.^ n i - -  .!.{.R.G * - y b n x ; s i -           ",
"        - h P.L.3.j q 6.' ` ) U y 2 b ^ a 2 y } W.~.E.^ y + 7 k W Q W x - s k -           ",
"        - c P.P.:.x * { $.) ) Q < * * - - 7.~.^.7.k : 1 i c Q U W ! W v & u c &           ",
"        - L P.P.=.z * h ;.' ` ' n R L r + 1.} 7 . 1 n Q U U Y Y Q ^ U c & i c -           ",
"        * P J.P.+.z * 2 =.#.( ' 3.P.[ E < . - r c ^ ` ` P U Y U Q ! U P & i k &           ",
"        - R L.P.| x * o x 5.$.` _ _ _ ' y , W / / ) ` ) P P U Y Q ) U L & e e >           ",
"        > R 5.3.b > - u > Q 5.+.' ' -.5.< w ^ ^ / Y ` ) Y P U Y Q Q U P & & >             ",
"        * z R r 1 ~ W.~.b = T 6.3.:.3.L * L ^ ^ ) ) ) ! U ! Y ) Q Q U v - & -             ",
"        = = * ^ [.}.R.b 2 * * w z l w * d _ ` ` ) ` ) ! Y ) Y ` Y Q P c % >               ",
"        = * 2 Y.U.b o < c #.b i > > w x ~ ` ` ` ) ` ) Y ` ` ` Y U Y P c %                 ",
"        = t r * o < * b 2.3.+.[ ' ` ' ` ` ~ ` ` ! ` ) ! ` ` ` Y U U P j >                 ",
"        > 1 -.z R Q q w @.=.#.` ` ` ' ` ` ` ` ` ) ` ` ` ` ) ` Y Q Y P p >                 ",
"          = 2.5.#.Q j = v [ <.` ` ` ) ` ` ` ` ) ` ` ` ` ) ] ` Y ! Q Q w -                 ",
"          * [ J.-.` P j > i +.` ` ` ` ` ' ^ Q k p i ` <.O.` ` ` ) ` ! , -                 ",
"          = P P.3._ R Q a * a Q ` ` ` ` ) / P , > % Q 7.$.' _ _ Q ) Y , -                 ",
"          - t 4.K.' ] _ ( p % P $._ ` ( I P c 2 - & i 6.L.=.' Q Y Y U p &                 ",
"            - +.K.;._ _ Q x > &.&.' _ ( Q P k &   - = O.>.5.2.I P U U 1 &                 ",
"            = b 4.6._ R P e q 5.2.=.` Q Q n y &     % l :.J.5.Q P P s &                   ",
"              > E :._ L a = > L 2.5.=.I x e - -       - t ( +.Q l i - >                   ",
"              > * r r 2 = > > = w i i q > % -           - * * - & >                       ",
"                  - - * =       - > & % -                                                 "
};
