/* XPM */
static char *_af3db3146a744c3ce718ff8da8f30d4x0GtdQqlA2tIF7bO[] = {
/* columns rows colors chars-per-pixel */
"64 64 213 2 ",
"   c None",
".  c #010000",
"X  c #090601",
"o  c #0E0A01",
"O  c #080A0C",
"+  c #130C02",
"@  c #110C09",
"#  c #180801",
"$  c #161003",
"%  c #1A1204",
"&  c #130F12",
"*  c #191413",
"=  c #221604",
"-  c #261905",
";  c #2C1D07",
":  c #2C1E08",
">  c #241A0F",
",  c #261B19",
"<  c #3A170F",
"1  c #1F201C",
"2  c #2E200F",
"3  c #342206",
"4  c #392405",
"5  c #332209",
"6  c #382508",
"7  c #3C290A",
"8  c #29251F",
"9  c #372C1E",
"0  c #2A2825",
"q  c #362924",
"w  c #363739",
"e  c #35332C",
"r  c #5A180A",
"t  c #4B140E",
"y  c #661504",
"u  c #641313",
"i  c #432D0B",
"p  c #4B320C",
"a  c #47310C",
"s  c #51360C",
"d  c #54390E",
"f  c #5B3E0F",
"g  c #543806",
"h  c #4E2014",
"j  c #563C14",
"k  c #52341D",
"l  c #653713",
"z  c #741C23",
"x  c #46372B",
"c  c #553C37",
"v  c #55382F",
"b  c #5F400F",
"n  c #5F4112",
"m  c #68450D",
"M  c #754E0C",
"N  c #7F540F",
"B  c #634310",
"V  c #6D4A11",
"C  c #6B4C1C",
"Z  c #724D13",
"A  c #765113",
"S  c #7C5413",
"D  c #76511C",
"F  c #4E422E",
"G  c #544120",
"H  c #4A4337",
"J  c #574739",
"K  c #634E2B",
"L  c #664821",
"P  c #704F24",
"I  c #735837",
"U  c #71512D",
"Y  c #7F6132",
"T  c #484848",
"R  c #585347",
"E  c #575859",
"W  c #664D47",
"Q  c #6A5C42",
"!  c #7A5B54",
"~  c #695E51",
"^  c #756346",
"/  c #6A665A",
"(  c #716B5B",
")  c #7B6656",
"_  c #676769",
"`  c #7B7261",
"'  c #7D7C79",
"]  c #86121C",
"[  c #841E22",
"{  c #A11928",
"}  c #9A3A3D",
"|  c #815713",
" . c #855A14",
".. c #8B5E15",
"X. c #855C1B",
"o. c #8E6116",
"O. c #8D621B",
"+. c #936315",
"@. c #9C6916",
"#. c #98671A",
"$. c #9C6A19",
"%. c #94651A",
"&. c #9F670E",
"*. c #A96D0C",
"=. c #A36D15",
"-. c #A36E19",
";. c #AB7215",
":. c #A6711A",
">. c #AC741B",
",. c #B37A1C",
"<. c #BA7E1C",
"1. c #B47917",
"2. c #B6750C",
"3. c #956A23",
"4. c #9F7027",
"5. c #8A6B3A",
"6. c #8F703F",
"7. c #84632B",
"8. c #A47221",
"9. c #A87D37",
"0. c #884F47",
"q. c #8F7141",
"w. c #9F7C42",
"e. c #836557",
"r. c #9A715D",
"t. c #8F7258",
"y. c #8F6B62",
"u. c #867F6B",
"i. c #997369",
"p. c #936C67",
"a. c #A67A6B",
"s. c #BF811E",
"d. c #BF8220",
"f. c #C4851E",
"g. c #C9861D",
"h. c #CC891D",
"j. c #C78215",
"k. c #D28C1D",
"l. c #D78C15",
"z. c #D7921F",
"x. c #D9921E",
"c. c #CC8A20",
"v. c #C38520",
"b. c #D28E21",
"n. c #D69122",
"m. c #DC9522",
"M. c #DF9823",
"N. c #E49A23",
"B. c #E89D24",
"V. c #E09723",
"C. c #EEA126",
"Z. c #9D865D",
"A. c #A68A5B",
"S. c #B28D50",
"D. c #8E836F",
"F. c #9B8767",
"G. c #9B937C",
"H. c #A38B63",
"J. c #AA9368",
"K. c #BD9E6F",
"L. c #AD9E7E",
"P. c #AC8075",
"I. c #BFA274",
"U. c #C2A26C",
"Y. c #C9A771",
"T. c #D1AD78",
"R. c #7D7E82",
"E. c #9B9686",
"W. c #A49C89",
"Q. c #A89A83",
"!. c #B69E8A",
"~. c #ADA89B",
"^. c #B5AB97",
"/. c #B9B49A",
"(. c #AEA38C",
"). c #9FA3A8",
"_. c #B5AEA0",
"`. c #AEB0B2",
"'. c #C08D82",
"]. c #CA9589",
"[. c #C79186",
"{. c #D19A92",
"}. c #DDBC85",
"|. c #DAA197",
" X c #C5AB81",
".X c #E3A699",
"XX c #EBAA9E",
"oX c #E1BD82",
"OX c #C0BDA0",
"+X c #C0BDB9",
"@X c #EEAEA0",
"#X c #F9B5A7",
"$X c #FBB7A8",
"%X c #FEBBAD",
"&X c #F1B4A9",
"*X c #FEBEB1",
"=X c #EDB0A6",
"-X c #EAC78C",
";X c #FFDD99",
":X c #FCD795",
">X c #DBCEAF",
",X c #D3CEB1",
"<X c #DCD5B9",
"1X c #C5C3A9",
"2X c #FFC2B3",
"3X c #BBBDC0",
"4X c #BEC0C3",
"5X c #D8D9DA",
"6X c #C8CCD1",
"7X c #E7DFC0",
"8X c #E1E3E4",
"9X c white",
"0X c #F0F4F9",
/* pixels */
"                                                                                                                                ",
"                                                                                                                                ",
"                                                                                                                                ",
"                                                                                                                                ",
"                                                                                                                                ",
"                                                                                                                                ",
"                                                                                                                                ",
"                                                              .                                                                 ",
"                                                            X X o                                                               ",
"                                                          o V :.X.d - .                                                         ",
"                                                        . n N.c.| :.<.a .                                                       ",
"                                                        o  .<.s a ,.s.V - .                                                     ",
"                                      . . . .           X s V p V Z p S :.i                                                     ",
"                                    , e.W 5 - +         . : S f B p a S #.B X                                                   ",
"                                  X y.2X=Xa.L g %       . B >. .O.A %.$.....s X .                                               ",
"                                  q |.2X*X%XP.C M ; .   o :.g.B f d ..b.m.n.o.a i +                                             ",
"                                . ! %X$X#X%X%Xi.S o.4 . 7 b.,.6 M | m h.m.b.>.>.g.M X                                           ",
"                                @ p.%X$X#X#X%X=Xe.O.;.l %.m.<.....X.I 4.k.n.m.-.3.Z % .                                         ",
"                                @ i.*X$X#X#X#X*X{.I 1.n.b.b.b.x.=.D.6XE.3.l.j.A.`.^ 4 .                                         ",
"                                X ! %X$X#X#X$X*X2Xi...M.n.b.b.x.>.~.9X0XF.2.;.~.9X^.7 .                                         ",
"                                . c @X$X#X$XXX.X|.i.$.n.b.b.b.b.,.W.5X8X+X-.=.~.9X5X8 .                                         ",
"                                  , ].2X$X$X[.W x S h.m.m.n.b.s.-.t.E E 6XS.=.x ).8Xw .       .                                 ",
"                                  . e.2X%X$X@X[.) P s.h.s.b.z.s.o.J w 1 3XU.*.$ _ 8XT . . . . .                                 ",
"                                  . , ].2X$X$X*X&Xt.@.-.S o.@.:.-.n T R.4XA.*.G ).5Xw . . .                                     ",
"                                    . c .X2X%X$X&Xr.>.c.s.:.:.@.#.m 8 ' ~.( G F _ _ * $                                         ",
"                                      . c {.*X2X2Xa.-.N.M.h.>.s.f.o.J ` L./ O X 8 0 d B + . . . . .                             ",
"                                        . q y.].|.p.D z.x.-.K K g k u.^.>X/.R / (./ C m .                                       ",
"                                          . X * , & + ..B.f.e.E X # q u.1X/.` W.^.^ ..s .                                       ",
"                                                    . % | | Q E.c t t k v h < / ( A B o                                         ",
"                                                      . o 4 I 7X!.z u r y y I <XE.5 X                                           ",
"                                                        X M #.L.,X0.{ [ r l (.<XH .                                             ",
"                                                        3 g.h.P / i.} ] t J ( e .                                               ",
"                                                      . V V.x.@.5 / Q.i./ * .                                                   ",
"                                                      % >.N.n.m.+.F E.OXR .                                                     ",
"                                                      B m.b.:.h.<.q.H.J.Q o                                                     ",
"                                                    ; ,.N.:. .b.g.w.-X;X-X9                                                     ",
"                                                  . B m.b. .#.m.h.4.T.;X:XQ .                                                   ",
"                              . . X + o           . A N.c.A $.N.z.8.U.;X;XZ.@                                                   ",
"                          . . . . + - 5 : o       . s n.V.:. .c.x.8.U.:X;XK.>                                                   ",
"                                      + 5 a 3       + %.N.n...+.l.9.}.;X:XT.C p 6 5 o                                           ",
"                                          5 f p : + % B :.N.c.S | 5.K.-X;XY.%.>.c.f.a .                                         ",
"                                            % B | A Z $.Z $.n.<.o.O.3.6.}.J.V :.c.| ;                                           ",
"                                              X 6 6 d c.,.Z -.V.n.z.1.A H.^ i ..>.7 .                                           ",
"                                                  . % ,.B.-.#.b.h.1.7.A.H.D 3 % a 5                                             ",
"                                                    . Z N.>.%.+.A @.6. Xw.@.6 .                                                 ",
"                                                      = >.s.| .. .V j Y <.<.;                                                   ",
"                                                      . f h.v.c.h.Z V <.N.o.X                                                   ",
"                                                        % >.N.n.k.o.s.N.,.;                                                     ",
"                                                        + #.m.n.s.o.c.c.f X .                                                   ",
"                                                        ; >.m.b.+.+.b.c.$.S b 6 X                                               ",
"                                                      X Z n.m.<.Z A +.$.c.n.-.#.f .                                             ",
"                                                      7 b.N.n.h.s.,.:.Z V f.c...a .                                             ",
"                                                      7 s.m.m.V.N.B.C.<.s s Z :                                                 ",
"                                                        5 V %.>.v.v.b.>.5 . .                                                   ",
"                                                          . $ = 5 7 7 5 X                                                       ",
"                                                              + . X . $                                                         ",
"                                                                                                                                ",
"                                                                                                                                ",
"                                                                                                                                ",
"                                                                                                                                ",
"                                                                                                                                ",
"                                                                                                                                ",
"                                                                                                                                ",
"                                                                                                                                "
};
