/* XPM */
static char *_273c1f8d45d482dd939a039912b4a6drKIxV6750aU9DPPZ[] = {
/* columns rows colors chars-per-pixel */
"64 64 98 2 ",
"   c None",
".  c #010100",
"X  c #0A0601",
"o  c #0C0903",
"O  c #130D02",
"+  c #161104",
"@  c #1B1204",
"#  c #16120C",
"$  c #211605",
"%  c #251906",
"&  c #2B1D06",
"*  c #2C1E09",
"=  c #301F07",
"-  c #231C13",
";  c #302107",
":  c #3A2607",
">  c #322108",
",  c #392609",
"<  c #3E2A0A",
"1  c #292217",
"2  c #2C2418",
"3  c #402A03",
"4  c #442D0A",
"5  c #482E08",
"6  c #46300C",
"7  c #4C330D",
"8  c #51360D",
"9  c #53380D",
"0  c #5A3D0F",
"q  c #403425",
"w  c #473B29",
"e  c #5D4115",
"r  c #65430E",
"t  c #644310",
"y  c #694711",
"u  c #6C4A12",
"i  c #724D13",
"p  c #775113",
"a  c #7C5413",
"s  c #544630",
"d  c #675029",
"f  c #7B5C2D",
"g  c #614F32",
"h  c #65553B",
"j  c #665A3E",
"k  c #7E6335",
"l  c #726245",
"z  c #825712",
"x  c #855A14",
"c  c #8A5D16",
"v  c #8E6016",
"b  c #946417",
"n  c #996717",
"m  c #9E6A17",
"M  c #966618",
"N  c #996718",
"B  c #9D6A19",
"V  c #A36E19",
"C  c #A6711A",
"Z  c #AB741B",
"A  c #B47A1C",
"S  c #BA7E1D",
"D  c #966D29",
"F  c #8B6D3C",
"G  c #B37B22",
"H  c #BD801E",
"J  c #C2841E",
"K  c #C8871F",
"L  c #C9881F",
"P  c #DB921D",
"I  c #C68620",
"U  c #CD8A20",
"Y  c #D28E21",
"T  c #D69021",
"R  c #DB9422",
"E  c #DF9823",
"W  c #E09723",
"Q  c #E29924",
"!  c #E99D25",
"~  c #EEA126",
"^  c #9F8353",
"/  c #99855C",
"(  c #AC8E5E",
")  c #B7965F",
"_  c #B4996B",
"`  c #BCA069",
"'  c #BDA171",
"]  c #C09E68",
"[  c #C2A674",
"{  c #CDB17C",
"}  c #DFBC81",
"|  c #E2BD82",
" . c #E6C286",
".. c #F4D192",
"X. c #FFD997",
"o. c #FFE5A1",
"O. c #FFEAA3",
"+. c #FFF3A9",
/* pixels */
"                                                                                                                                ",
"                                                                                                                                ",
"                                                                                                                                ",
"                                                                                                                                ",
"                                                                                                                                ",
"                                                                                                                                ",
"                                                                                                                                ",
"                                                                                                                                ",
"                                . @ : % X                                                                                       ",
"                                O 0 x u * X           .     . .                         . X .                                   ",
"                              . u T ! R A 9 .         . .   . .                     X % 0 p 6 X                                 ",
"                              ; H Q T T Q L 0 .       . o O o O .                 O u A T E K 9 .                               ",
"                              t R R Y Y Y Q U 9 .     . O 6 > 7 < o           . % M R R T T Q A %                               ",
"                          . . x Q Y Y Y Y Y E S 4 . . + 9 C G C S x > .       * V R T Y Y Y T T 0 X                             ",
"                          . O B Q Y Y Y Y Y Y Q Z $ * V Y T R R R Q S t O . * V Q T Y Y Y Y Y R a +                             ",
"                          . + C W Y Y Y Y Y Y Y R c c R E T Y Y Y R Q U 9 % B Q R Y Y Y Y Y T R z @                             ",
"                          . X b Q T Y Y Y Y Y Y T Y U Y Y Y Y Y Y Y Y T B B R T Y Y Y Y Y Y T R u O                             ",
"                            . i R T Y Y Y Y T U Y T T Y Y Y Y Y Y Y Y Y Y R T Y Y Y Y Y Y Y R L 4 .                             ",
"                              4 U E T T T U T U Y Y U Y Y Y Y Y Y Y Y Y Y Y Y Y Y Y Y Y U Y Q B O                               ",
"                              O B Q T U T Y Y T Y Y T Y Y Y Y Y Y Y Y Y Y Y Y Y Y Y Y Y Y Q U 7 .                               ",
"                              . < A E R Y T U T Y Y Y Y Y Y Y Y Y Y Y Y Y Y Y Y Y Y Y T Q T u .                                 ",
"                                . > B T R R T U Y Y Y Y Y Y Y Y Y Y Y Y Y Y Y T T R R R H r . .                                 ",
"                                    + 9 x C J T Y Y Y Y U T Y Y Y Y Y Y Y Y T U H Z c t * X                                     ",
"                                        o 7 C T T Y Y Y Y Y Y Y Y Y Y Y Y T U v : @ O . .                                       ",
"                                    .   . 9 Y T Y Y Y Y Y Y Y Y Y Y Y Y Y Y T M O                                               ",
"                                    . . . @ Z Q Y Y Y Y Y Y Y Y Y Y Y Y Y T Q x o . .                                           ",
"                                          . 6 I Q Y Y Y Y Y Y Y Y Y Y Y Y Q A &                                                 ",
"                                            . 9 J Q R Y T Y Y Y T Y Y T Q K 9 .                                                 ",
"                                          . . X , V R E Y Y Y Y U T W Q A 6 . .                                                 ",
"                                          .       O t M x A T T C b C u % .   . .                                               ",
"                                                    @ u x A T T B p i @                                                         ",
"                                                  & N Y Y Y Y Y U U U a O                                                       ",
"                                              . * B E R T Y Y Y Y R Q T u o                                                     ",
"                                          . % u S R T U Y Y Y Y Y U L Q J 9 X                                                   ",
"                                        X 9 A R W W S V U Y Y Y R A b Y Q H 9 o                                                 ",
"                                      . , U ! R W W c c Y R Y Y R S p G Q R Y i o                                               ",
"                                        & A E W T N y S R Y Y Y Y Y x V Q Q ~ C @                                               ",
"                                          & t i 7 $ x Q T Y Y Y Y Q M 9 c Z M < .                                               ",
"                                            X .   $ S E Y Y Y Y Y Q Z O . @ O                                                   ",
"                                                . 7 T T Y Y Y Y Y Q A $                                                         ",
"                                                . a E Y Y Y Y Y Y R J > .                                                       ",
"                                                O N R Y Y Y Y Y Y R J y @     . O o . . .                                       ",
"                                              . 4 Z R Y Y Y Y U Y T S b 0 $ > < * O . .                                         ",
"                                              @ c J Y Y Y R Z b N n c x x y 4 % O                                               ",
"                                              > S R Y Y Y S v a a a a x p = X                                                   ",
"                                              , I R Y R R S B B B M B Z z O                                                     ",
"                                              % S Q U A S U U U S H T Q b o                                                     ",
"                                              O V R B 5 * 4 0 9 4 z P R 0 .                                                     ",
"                                              X t x r : . . . . . e A S :                                                       ",
"                                              . 5 f ( d X       1 _ _ D <                                                       ",
"                                              O F { X.l .     . q ..o.] e X                                                     ",
"                                            . h { O...w .       # _ o...F @                                                     ",
"                                          . j  .O.O./ o         . h X.o._ ;                                                     ",
"                                          # } +.X.` 2             - [ ..( *                                                     ",
"                                          o j / j - .               s h 2 X                                                     ",
"                                              o . .                 o o                                                         ",
"                                                                                                                                ",
"                                                                                                                                ",
"                                                                                                                                ",
"                                                                                                                                ",
"                                                                                                                                ",
"                                                                                                                                ",
"                                                                                                                                ",
"                                                                                                                                "
};
