/* XPM */
static char *_41a311a46da4d70ebee0d731318618eSgMfZDXci6uI1LHm[] = {
/* columns rows colors chars-per-pixel */
"64 64 215 2 ",
"   c None",
".  c #010100",
"X  c #0B0603",
"o  c #0D0902",
"O  c #0B0A0A",
"+  c #130D02",
"@  c #120C0A",
"#  c #130404",
"$  c #171203",
"%  c #1B1203",
"&  c #151413",
"*  c #1D1A14",
"=  c #221604",
"-  c #271A05",
";  c #2A1C06",
":  c #251A18",
">  c #271E17",
",  c #2F210B",
"<  c #342306",
"1  c #332209",
"2  c #3A2709",
"3  c #3E2A09",
"4  c #3C2706",
"5  c #2C231D",
"6  c #34291A",
"7  c #2E2D2A",
"8  c #3B2C29",
"9  c #3A342C",
"0  c #363937",
"q  c #510D13",
"w  c #680F17",
"e  c #432E0B",
"r  c #4C330B",
"t  c #47300B",
"y  c #50360B",
"u  c #56390D",
"i  c #5B3D0D",
"p  c #5B3A07",
"a  c #4C3615",
"s  c #593E16",
"d  c #422D11",
"f  c #613E07",
"g  c #463329",
"h  c #4C3935",
"j  c #49362F",
"k  c #5F431A",
"l  c #64420C",
"z  c #6D470A",
"x  c #724B0B",
"c  c #784F0E",
"v  c #7D540D",
"b  c #644411",
"n  c #694711",
"m  c #6C4A12",
"M  c #62471B",
"N  c #734D12",
"B  c #7B5212",
"V  c #7A551A",
"C  c #534225",
"Z  c #48443A",
"A  c #57413C",
"S  c #684C2A",
"D  c #7B5A27",
"F  c #725538",
"G  c #695235",
"H  c #3F4248",
"J  c #454544",
"K  c #534D42",
"L  c #5E594C",
"P  c #56585B",
"I  c #654942",
"U  c #655D4C",
"Y  c #7D5C55",
"T  c #635D52",
"R  c #796848",
"E  c #696454",
"W  c #786A52",
"Q  c #6C604D",
"!  c #797261",
"~  c #7E7A69",
"^  c #73716D",
"/  c #931F29",
"(  c #9C2F36",
")  c #D62C3A",
"_  c #8C5C0E",
"`  c #82570D",
"'  c #805714",
"]  c #865B14",
"[  c #8A5D14",
"{  c #855B1D",
"}  c #94610C",
"|  c #8E6116",
" . c #8E621B",
".. c #936314",
"X. c #94651B",
"o. c #9C6A19",
"O. c #9B6813",
"+. c #A36D14",
"@. c #A26E1A",
"#. c #A86F13",
"$. c #A67014",
"%. c #AF7516",
"&. c #A67119",
"*. c #AB741A",
"=. c #B47A1B",
"-. c #BB7E1C",
";. c #B47713",
":. c #B0740F",
">. c #845B24",
",. c #855E35",
"<. c #8D6422",
"1. c #8D622B",
"2. c #9C6E24",
"3. c #946925",
"4. c #896739",
"5. c #967239",
"6. c #967137",
"7. c #A97522",
"8. c #AD7A29",
"9. c #C17E0E",
"0. c #F83342",
"q. c #8C5752",
"w. c #AF4A4B",
"e. c #876943",
"r. c #8A6659",
"t. c #936B57",
"y. c #977554",
"u. c #946F46",
"i. c #A47F43",
"p. c #946D65",
"a. c #837A69",
"s. c #9D756B",
"d. c #8F6A62",
"f. c #A37767",
"g. c #A87C74",
"h. c #AB6D65",
"j. c #BE811D",
"k. c #CC8514",
"l. c #C3831C",
"z. c #C9861B",
"x. c #CC891E",
"c. c #D38C1B",
"v. c #D28A16",
"b. c #DB931F",
"n. c #CC8A20",
"m. c #D38E21",
"M. c #D69122",
"N. c #DC9522",
"B. c #DF9823",
"V. c #E39A23",
"C. c #E59B23",
"Z. c #9E8150",
"A. c #A78449",
"S. c #A88954",
"D. c #B49055",
"F. c #8C8373",
"G. c #958978",
"H. c #94876C",
"J. c #BA9D6B",
"K. c #BB9B65",
"L. c #B7877B",
"P. c #AE8177",
"I. c #C18E7C",
"U. c #C4A36B",
"Y. c #CFAE78",
"T. c #95918B",
"R. c #BC8C83",
"E. c #A99F86",
"W. c #BF9089",
"Q. c #ABA38D",
"!. c #ABA797",
"~. c #B2AA95",
"^. c #BEB299",
"/. c #A5ABB1",
"(. c #B0B0B0",
"). c #C7948A",
"_. c #D49C94",
"`. c #D89D91",
"'. c #CF9992",
"]. c #DEBA84",
"[. c #DDA399",
"{. c #E2BF87",
"}. c #E6A99D",
"|. c #C8BBA1",
" X c #EAACA3",
".X c #EEB2A8",
"XX c #F6B4A7",
"oX c #F9B5A7",
"OX c #FBB6A8",
"+X c #FEBBAD",
"@X c #F4B5AD",
"#X c #FFBFB2",
"$X c #EBC88C",
"%X c #FED493",
"&X c #FEDC9A",
"*X c #F9D696",
"=X c #E6CB93",
"-X c #FFE09C",
";X c #D5C7AC",
":X c #DAD2B5",
">X c #D3CDB1",
",X c #FFC2B3",
"<X c #FFC5B9",
"1X c #FFC8B8",
"2X c #E6DBBA",
"3X c #BFC2C7",
"4X c #C2C7CB",
"5X c #E6DFC4",
"6X c #FFFBD8",
"7X c #F5EBC9",
"8X c #DADDE3",
"9X c #DAE0EA",
"0X c #E2E4EA",
"qX c white",
"wX c #F4F8FF",
/* pixels */
"                                                                                                                                ",
"                                                                                                                                ",
"                                                                                                                                ",
"                                                                                                                                ",
"                                                                                                                                ",
"                                                                                                                                ",
"                                                                                                                                ",
"                                                                  .                                                             ",
"                                                                  .                                                             ",
"                                    = - +                       X . . .               . $ = +                                   ",
"                                = x #.%.[ 2 .                 . o $ +               + y v v y o                                 ",
"                              + x 7.2.2.%.$.u .           $ - , t u $             - x [ 1.y.f.A X                               ",
"                              = e.).).g.t.>.+.u .     1 n o.=.&.l.=.B e +       - v D t._.@X<X}.8 #                             ",
"                            . A  X#X+X#X@XR.e...e + r l | b.B.N.N.N.M.B e % . - ] >.g.@X,X+X,X.Xh &                             ",
"                          . X g.<X+XoXoX+X#X'.4._ n b r x z.N.M.m.N.n.f r y e ` { f.@X+XoXoX+X}.g @                             ",
"                          @ > ).#XoXoX+X+X+X,XP.X...y l k  .z.M.m.N.O.l p N =.[ r.XX#XoXoXoX,X`.> .                             ",
"                          @ : ).,XoXoX X`.XX<X_.1.+.p Q /.T.3.c.b.%.e.T.W *.;.F _.<X+XoXoXoX#XL.@                               ",
"                          . O g.,XOX+X}.I s.@XW.3.;.<.(.qX8X5.c.k.4.3XqX(.$.} r.,X}.`.XXoX+XOXr.                                ",
"                          . . Y ,X+X+XXXI d e.4.=.k.u.8XqX9Xy.k.%.T.wXqXQ.#.$.t.R.I d.XXoX+X}.8                                 ",
"                              g }.,XoX+X).S l O.b.k.y.0X(.^ R v.2.^ /.8XH.;.c.@.b h _.+XoX,XP.@                                 ",
"                              X p.#X+XoX+Xg.k =.N.;.4.4XP . M N.V O 0 T.2.c.M.] S '.#XOX+X}.h .                                 ",
"                                : g.+X#X+Xf.o.N.m.+.N ~ J . b n.b . H W ` =.M.O.F  X<X#X@XY X                                   ",
"                                . : d.}.`.,.l.V.N.M.c.3.J 7 , e @ O H s O.x.N.b.{ f..X_.Y @                                     ",
"                                    O 8 A a _ [ +.7.9.[ W G.& . . & L D c.V.V.V.&.g h > O                                       ",
"                                      . . o 6 g e p z r H.;XT * 9 ~ G.S O...` x B -                                             ",
"                                          . E :XQ.R a > T |.2X^.;X7XG.6 2 C E U 1 X                                             ",
"                                          . K 2X|.F.F.Z X 0 E U ~ ~ 7 & K G.5XQ.O   .                                           ",
"                                            . Z Q.2X6X^.& . # . O X . ! 2X|.a.9 .                                               ",
"                                              O W 5X6X6X! q / / ( w Z :X6XG.*                                                   ",
"                                                . Z Q.>X~.q.) 0.0.( a.Q.! O         .                                           ",
"                                                    * C W Q.h.w.w.F.U 6               .                                         ",
"                                                  . l :...a.~.~.!.~ V v $                                                       ",
"                                                $ k n.N.z.$.1.R F V z.C.]                                                       ",
"                                            O ; n @.n.&.&.j.:.} _ ;.j.B.x.l +                                                   ",
"                                        $ n [ [ $.] B c  .A.5.A.K.6.v ] ' | i ;                                                 ",
"                                        l m.V.&.o. .B b S.=X].$X-XK.k u N @.n.*.e                                               ",
"                                        i ..n.&.| ] z D {.&X%X%X&X$XS i N o.*.n.n                                               ",
"                                        o = t r m i t S.&X%X%X%X%X=XG r u n ' o.2                                               ",
"                                              + m y S Y.%X%X%X%X%X*Xe.r 1 o 2 1                                                 ",
"                                                + < 5.&X%X%X%X%X%X*XA.2 .                                                       ",
"                                                . i D.&X%X%X%X%X%X*XA.y                                                         ",
"                            . .                 - X.U.%X%X%X%X%X%X$XA.} %                                                       ",
"                                . + % % + +   . l 8.U.&X%X%X%X%X&X].8.z.u                                                       ",
"                                  . + 1 r i r 1 X.=.U.&X%X%X%X%X&XU.2.b.B .                                                     ",
"                                      X   1 t u =.j.S.*X&X%X%X&X*XZ.*.C.o.$                                                     ",
"                                              d m.c.2.J.*X&X&X*XJ.3.z.C.*.$                                                     ",
"                                            . i N.N.l.7.A.U.U.S.3.j.b.B.@.o                                                     ",
"                                            . n N.M.M.l.X.N m N o.c.M.C.[ X                                                     ",
"                                              y m.C.j.i ;     X 3 j.V.m.u                                                       ",
"                                              % *.C.n.1         a n.C.-.;                                                       ",
"                                              % &.V.N.b         n N.V.n.t                                                       ",
"                                            . b M.V.m.r         1 -.N.V.o.+                                                     ",
"                                            2 j.B.V.@.%           | N.N.n.1                                                     ",
"                                          = o.l.m.n.r             N N.n.-.t                                                     ",
"                                          1 [ X.n.N .             u M.*.N -                                                     ",
"                                          X % t b o               $ y 3 +                                                       ",
"                                                .                   .                                                           ",
"                                                                                                                                ",
"                                                                                                                                ",
"                                                                                                                                ",
"                                                                                                                                ",
"                                                                                                                                ",
"                                                                                                                                ",
"                                                                                                                                "
};
