/* XPM */
static char *ec3ae09eaf534f8fa8b9dd4472040f96dejPnnxXaIXhsLmK[] = {
/* columns rows colors chars-per-pixel */
"64 64 2 1 ",
"  c #8A857B",
". c #6F6A63",
/* pixels */
" ....  ...  ...   ...  ...  ....  ...  ...  ....  ...  ....  ...",
"..  ...  ....  ...  ....  ...  ...  ....  ...  ....  ...  ...  .",
" .  .    .  .       .  .    .  .    .  .    .  .  .    .  .    .",
" .  .    .  .       .  .    .  .    .  .    .  .  .    .  .    .",
"..  ...  ....  ...  ....  ...  ...  ....  ...  ....  ...  ...  .",
" ....  ...  ...   ...  ...  ....  ...  ...  ....  ...  ....  ...",
" .  .    .  .       .  .    .  .    .  .    .  .  .    .  .    .",
" .  .    .  .       .  .    .  .    .  .    .  .  .    .  .    .",
" ....  ...  ...   ...  ...  ....  ...  ...  ....  ...  ....  ...",
"..  ...  ....  ...  ....  ...  ...  ....  ...  ....  ...  ...  .",
" .  .    .  .       .  .    .  .    .  .    .  .  .    .  .    .",
" .  .    .  .       .  .    .  .    .  .    .  .  .    .  .    .",
"..  ...  ....  ...  ....  ...  ...  ....  ...  ....  ...  ...  .",
" ....  ...  ...   ...  ...  ....  ...  ...  ....  ...  ....  ...",
" .  .    .  .       .  .    .  .    .  .    .  .  .    .  .    .",
" .  .    .  .       .  .    .  .    .  .    .  .  .    .  .    .",
" ....  ...  ...   ...  ...  ....  ...  ...  ....  ...  ....  ...",
" .  .    .  .       .  .    .  .    .  .    .  .  .    .  .    .",
" .  .    .  .       .  .    .  .    .  .    .  .  .    .  .    .",
" ....  ...  ...   ...  ...  ....  ...  ...  ....  ...  ....  ...",
"..  ...  ....  ...  ....  ...  ...  ....  ...  ....  ...  ...  .",
" .  .    .  .       .  .    .  .    .  .    .  .  .    .  .    .",
" .  .    .  .       .  .    .  .    .  .    .  .  .    .  .    .",
"..  ...  ....  ...  ....  ...  ...  ....  ...  ....  ...  ...  .",
" ....  ...  ...   ...  ...  ....  ...  ...  ....  ...  ....  ...",
" .  .    .  .       .  .    .  .    .  .    .  .  .    .  .    .",
" .  .    .  .       .  .    .  .    .  .    .  .  .    .  .    .",
" ....  ...  ...   ...  ...  ....  ...  ...  ....  ...  ....  ...",
"..  ...  ....  ...  ....  ...  ...  ....  ...  ....  ...  ...  .",
" .  .    .  .       .  .    .  .    .  .    .  .  .    .  .    .",
" .  .    .  .       .  .    .  .    .  .    .  .  .    .  .    .",
"..  ...  ....  ...  ....  ...  ...  ....  ...  ....  ...  ...  .",
" ....  ...  ...   ...  ...  ....  ...  ...  ....  ...  ....  ...",
" .  .    .  .       .  .    .  .    .  .    .  .  .    .  .    .",
" .  .    .  .       .  .    .  .    .  .    .  .  .    .  .    .",
" ....  ...  ...   ...  ...  ....  ...  ...  ....  ...  ....  ...",
"..  ...  ....  ...  ....  ...  ...  ....  ...  ....  ...  ...  .",
" .  .    .  .       .  .    .  .    .  .    .  .  .    .  .    .",
" .  .    .  .       .  .    .  .    .  .    .  .  .    .  .    .",
"..  ...  ....  ...  ....  ...  ...  ....  ...  ....  ...  ...  .",
" ....  ...  ...   ...  ...  ....  ...  ...  ....  ...  ....  ...",
" .  .    .  .       .  .    .  .    .  .    .  .  .    .  .    .",
" .  .    .  .       .  .    .  .    .  .    .  .  .    .  .    .",
" ....  ...  ...   ...  ...  ....  ...  ...  ....  ...  ....  ...",
"..  ...  ....  ...  ....  ...  ...  ....  ...  ....  ...  ...  .",
" .  .    .  .       .  .    .  .    .  .    .  .  .    .  .    .",
" .  .    .  .       .  .    .  .    .  .    .  .  .    .  .    .",
"..  ...  ....  ...  ....  ...  ...  ....  ...  ....  ...  ...  .",
" .  .    .  .       .  .    .  .    .  .    .  .  .    .  .    .",
" .  .    .  .       .  .    .  .    .  .    .  .  .    .  .    .",
"..  ...  ....  ...  ....  ...  ...  ....  ...  ....  ...  ...  .",
" ....  ...  ...   ...  ...  ....  ...  ...  ....  ...  ....  ...",
" .  .    .  .       .  .    .  .    .  .    .  .  .    .  .    .",
" .  .    .  .       .  .    .  .    .  .    .  .  .    .  .    .",
" ....  ...  ...   ...  ...  ....  ...  ...  ....  ...  ....  ...",
"..  ...  ....  ...  ....  ...  ...  ....  ...  ....  ...  ...  .",
" .  .    .  .       .  .    .  .    .  .    .  .  .    .  .    .",
" .  .    .  .       .  .    .  .    .  .    .  .  .    .  .    .",
"..  ...  ....  ...  ....  ...  ...  ....  ...  ....  ...  ...  .",
" ....  ...  ...   ...  ...  ....  ...  ...  ....  ...  ....  ...",
" .  .    .  .       .  .    .  .    .  .    .  .  .    .  .    .",
" .  .    .  .       .  .    .  .    .  .    .  .  .    .  .    .",
" ....  ...  ...   ...  ...  ....  ...  ...  ....  ...  ....  ...",
"..  ...  ....  ...  ....  ...  ...  ....  ...  ....  ...  ...  ."
};
